<svg width="854" height="380" viewBox="0 0 854 380" fill="none" xmlns="http://www.w3.org/2000/svg">
<path fill-rule="evenodd" clip-rule="evenodd" d="M410.08 113.86L428.667 103.6V84.31C426.507 83.9304 424.552 82.8117 423.143 81.15L393.364 98.18C393.718 99.16 393.91 100.21 393.91 101.31C393.91 102.23 393.779 103.11 393.526 103.95L410.08 113.86ZM421.564 78.48C421.169 77.441 420.967 76.34 420.967 75.23C420.967 72.68 422.009 70.37 423.699 68.7C425.389 67.03 427.726 66 430.307 66C432.887 66 435.224 67.03 436.914 68.7C437.782 69.5569 438.47 70.575 438.939 71.6956C439.408 72.8162 439.648 74.0174 439.646 75.23C439.646 76.35 439.443 77.42 439.079 78.41L469 95.51C469.212 95.26 469.425 95.01 469.657 94.78C470.524 93.922 471.554 93.2418 472.688 92.7785C473.822 92.3151 475.038 92.0777 476.265 92.08C478.845 92.08 481.182 93.11 482.872 94.78C483.74 95.637 484.428 96.655 484.897 97.7756C485.366 98.8962 485.606 100.097 485.604 101.31C485.604 103.86 484.562 106.16 482.872 107.83C481.42 109.267 479.527 110.188 477.489 110.45V144.36C479.584 144.63 481.455 145.58 482.872 146.98C484.562 148.65 485.604 150.96 485.604 153.5C485.605 154.712 485.364 155.913 484.895 157.033C484.426 158.154 483.738 159.172 482.871 160.029C482.004 160.886 480.974 161.566 479.84 162.03C478.706 162.493 477.491 162.731 476.265 162.73C474.88 162.732 473.511 162.429 472.26 161.843C471.008 161.256 469.905 160.401 469.03 159.34L439.069 176.46C439.433 177.45 439.636 178.52 439.636 179.64C439.636 182.19 438.594 184.5 436.904 186.17C436.037 187.028 435.007 187.708 433.873 188.172C432.739 188.635 431.523 188.872 430.296 188.87C427.716 188.87 425.379 187.84 423.689 186.17C421.999 184.5 420.957 182.19 420.957 179.64C420.957 178.5 421.17 177.4 421.554 176.39L391.785 159.38C390.91 160.433 389.808 161.281 388.561 161.862C387.313 162.443 385.95 162.743 384.571 162.74C381.991 162.74 379.653 161.71 377.964 160.04C376.284 158.37 375.242 156.06 375.242 153.51C375.242 150.96 376.284 148.66 377.974 146.99C379.409 145.57 381.274 144.65 383.286 144.37V110.44C381.273 110.165 379.407 109.244 377.974 107.82C377.105 106.966 376.416 105.949 375.947 104.83C375.478 103.711 375.239 102.511 375.242 101.3C375.242 98.75 376.284 96.44 377.974 94.77C378.841 93.912 379.871 93.2318 381.005 92.7685C382.139 92.3051 383.354 92.0677 384.581 92.07C385.969 92.0676 387.339 92.3716 388.593 92.9599C389.846 93.5481 390.951 94.4057 391.826 95.47L421.564 78.48ZM437.511 81.09C436.093 82.7989 434.099 83.9456 431.895 84.32V103.6L450.442 114.22L467.492 104.48C467.118 103.49 466.925 102.41 466.925 101.3C466.925 100.22 467.118 99.17 467.462 98.21L437.511 81.09V81.09ZM474.636 110.39C472.748 110.066 471.009 109.171 469.657 107.83C469.465 107.64 469.283 107.45 469.111 107.24L452.092 116.96V137.74L469.182 147.49C469.333 147.32 469.485 147.15 469.647 146.99C471 145.651 472.739 144.757 474.625 144.43V110.39H474.636ZM467.482 156.66C467.118 155.68 466.925 154.62 466.925 153.52C466.925 152.36 467.138 151.25 467.543 150.22L451.009 140.79L431.895 151.77V170.56C434.099 170.934 436.093 172.081 437.511 173.79L467.482 156.66V156.66ZM423.143 173.72C424.552 172.058 426.507 170.94 428.667 170.56V151.68L409.483 140.68L393.202 149.97C393.657 151.06 393.92 152.26 393.92 153.52C393.92 154.64 393.718 155.71 393.354 156.7L423.143 173.72V173.72ZM386.129 144.41C388.082 144.73 389.833 145.66 391.178 146.99C391.28 147.09 391.371 147.19 391.462 147.29L408.046 137.83V116.36L392.079 106.8C391.806 107.17 391.502 107.51 391.178 107.83C389.806 109.186 388.042 110.088 386.129 110.41V144.41ZM384.591 107.34C384.632 107.34 384.672 107.33 384.713 107.33H384.794C386.34 107.282 387.809 106.653 388.902 105.57C389.47 105.01 389.921 104.344 390.228 103.612C390.535 102.879 390.693 102.093 390.693 101.3C390.693 99.63 390.005 98.12 388.902 97.03C387.799 95.94 386.271 95.26 384.581 95.26C382.891 95.26 381.363 95.94 380.26 97.03C379.692 97.5901 379.241 98.2557 378.934 98.9884C378.627 99.7212 378.469 100.507 378.47 101.3C378.47 102.97 379.158 104.48 380.26 105.57C380.829 106.133 381.504 106.579 382.247 106.882C382.99 107.186 383.787 107.342 384.591 107.34V107.34ZM434.617 175.39C434.05 174.828 433.377 174.383 432.635 174.079C431.894 173.775 431.099 173.619 430.296 173.62C428.607 173.62 427.079 174.3 425.976 175.39C424.873 176.48 424.185 177.99 424.185 179.66C424.185 181.33 424.873 182.84 425.976 183.93C427.079 185.02 428.607 185.7 430.296 185.7C431.986 185.7 433.514 185.02 434.617 183.93C435.72 182.84 436.408 181.33 436.408 179.66C436.408 177.99 435.73 176.48 434.617 175.39V175.39ZM434.617 70.96C434.05 70.3983 433.377 69.9528 432.635 69.6491C431.894 69.3453 431.099 69.1893 430.296 69.19C428.607 69.19 427.079 69.87 425.976 70.96C424.873 72.05 424.185 73.56 424.185 75.23C424.185 76.9 424.873 78.41 425.976 79.5C426.543 80.0617 427.216 80.5072 427.957 80.8109C428.699 81.1147 429.494 81.2707 430.296 81.27C431.986 81.27 433.514 80.59 434.617 79.5C435.185 78.9399 435.636 78.2743 435.943 77.5416C436.251 76.8088 436.409 76.0232 436.408 75.23C436.408 73.56 435.73 72.05 434.617 70.96V70.96ZM480.575 149.25C480.008 148.688 479.335 148.243 478.593 147.939C477.852 147.635 477.057 147.479 476.255 147.48C474.565 147.48 473.037 148.16 471.934 149.25C471.366 149.81 470.915 150.476 470.607 151.208C470.3 151.941 470.142 152.727 470.143 153.52C470.143 155.19 470.831 156.7 471.934 157.79C472.501 158.352 473.174 158.797 473.916 159.101C474.657 159.405 475.452 159.561 476.255 159.56C477.944 159.56 479.472 158.88 480.575 157.79C481.143 157.23 481.594 156.564 481.902 155.832C482.209 155.099 482.367 154.313 482.366 153.52C482.366 151.85 481.688 150.34 480.575 149.25ZM388.902 149.25C387.799 148.16 386.271 147.48 384.581 147.48C382.891 147.48 381.363 148.16 380.26 149.25C379.692 149.81 379.241 150.476 378.934 151.208C378.627 151.941 378.469 152.727 378.47 153.52C378.47 155.19 379.158 156.7 380.26 157.79C381.363 158.88 382.891 159.56 384.581 159.56C386.271 159.56 387.799 158.88 388.902 157.79C389.47 157.23 389.921 156.564 390.228 155.832C390.535 155.099 390.693 154.313 390.693 153.52C390.689 151.919 390.046 150.384 388.902 149.25V149.25ZM470.811 104.03C470.892 104.11 470.952 104.21 471.013 104.31C471.074 104.41 471.114 104.51 471.155 104.62C471.388 104.96 471.651 105.28 471.934 105.57C472.501 106.132 473.174 106.577 473.916 106.881C474.657 107.185 475.452 107.341 476.255 107.34C477.944 107.34 479.472 106.66 480.575 105.57C481.143 105.01 481.594 104.344 481.902 103.612C482.209 102.879 482.367 102.093 482.366 101.3C482.366 99.63 481.678 98.12 480.575 97.03C480.008 96.4683 479.335 96.0228 478.593 95.7191C477.852 95.4153 477.057 95.2593 476.255 95.26C474.565 95.26 473.037 95.94 471.934 97.03C471.366 97.5901 470.915 98.2557 470.607 98.9884C470.3 99.7212 470.142 100.507 470.143 101.3C470.153 102.29 470.396 103.21 470.811 104.03V104.03ZM411.071 137.49C411.301 137.734 411.453 138.041 411.506 138.37L428.839 148.44V128.56L411.071 118.11V137.49ZM449.076 118.38L431.865 128.57V148.46L449.076 138.41V118.38V118.38ZM430.276 105.99L413.479 115.92L430.367 125.97L446.769 116.13L430.276 105.99V105.99Z" fill="#06C579"/>
<path d="M224.723 221.54C231.396 221.54 236.879 223.873 241.173 228.54C245.466 233.16 247.613 239.18 247.613 246.6C247.613 253.74 245.513 259.503 241.313 263.89C237.159 268.23 231.816 270.4 225.283 270.4C218.563 270.4 213.056 268.183 208.763 263.75C204.469 259.317 202.323 253.483 202.323 246.25C202.323 238.97 204.423 233.043 208.623 228.47C212.869 223.85 218.236 221.54 224.723 221.54ZM218.703 228.68C217.163 229.987 215.903 232.11 214.923 235.05C213.989 237.99 213.523 241.303 213.523 244.99C213.523 250.637 214.643 255.257 216.883 258.85C219.123 262.443 222.319 264.24 226.473 264.24C227.546 264.24 228.876 264.03 230.463 263.61C232.236 262.21 233.659 259.993 234.733 256.96C235.806 253.927 236.343 250.543 236.343 246.81C236.343 241.163 235.199 236.567 232.913 233.02C230.626 229.473 227.593 227.7 223.813 227.7C222.226 227.7 220.523 228.027 218.703 228.68ZM266.779 252.41V264.24L275.179 265.43L275.109 269H250.889L250.469 266.76C251.916 265.873 253.806 264.94 256.139 263.96V227.14L250.959 226.51L251.029 222.94L273.639 222.38C279.052 222.38 283.416 223.827 286.729 226.72C290.089 229.567 291.769 233.183 291.769 237.57C291.769 241.723 290.182 245.2 287.009 248C283.836 250.8 279.752 252.247 274.759 252.34L266.779 252.41ZM266.779 228.89V246.18C268.646 246.553 270.442 246.74 272.169 246.74C275.016 246.74 277.162 245.853 278.609 244.08C280.056 242.26 280.779 240.043 280.779 237.43C280.779 235.423 280.406 233.51 279.659 231.69C278.912 229.87 277.862 228.587 276.509 227.84L266.779 228.89ZM330.378 255.07C330.472 259.643 330.192 264.287 329.538 269H292.928L292.508 266.76C293.862 265.873 295.845 264.917 298.458 263.89V227.14L293.278 226.51L293.348 222.94H329.888C330.122 226.767 329.748 231.2 328.768 236.24H322.888L321.698 229.31L309.098 228.4V243.45L324.148 242.26V249.33L309.098 248.7V263.19L322.188 262.28L324.498 254.65L330.378 255.07ZM386.181 225.18C384.735 226.067 382.845 227 380.511 227.98L380.231 269L370.361 269.91L348.241 235.96L349.291 244.57V264.52L355.451 265.43L355.381 269H336.131L335.711 266.76C337.065 265.873 339.048 264.917 341.661 263.89V227.28L336.761 226.51L336.831 222.94H352.371L352.301 223.01L373.931 256.82L372.881 247.93V227.49L366.091 226.51L366.161 222.94H385.761L386.181 225.18ZM444.356 256.33C444.356 260.483 442.699 263.867 439.386 266.48C436.119 269.093 431.989 270.4 426.996 270.4C424.289 270.4 421.349 269.98 418.176 269.14C415.002 268.347 412.389 267.273 410.336 265.92L410.266 263.96C410.266 260.087 410.639 256.4 411.386 252.9H416.426L419.856 262.7C422.796 264.053 426.156 264.73 429.936 264.73C432.502 263.517 433.786 261.557 433.786 258.85C433.786 256.377 432.269 254.3 429.236 252.62L418.736 247.3C413.182 244.127 410.406 240.137 410.406 235.33C410.406 231.27 412.086 227.957 415.446 225.39C418.806 222.823 423.122 221.54 428.396 221.54C433.062 221.54 437.682 222.38 442.256 224.06C442.256 229.007 441.859 233.277 441.066 236.87H435.466L433.436 229.03C430.729 227.63 427.486 226.977 423.706 227.07C421.559 228.423 420.486 230.313 420.486 232.74C420.486 234.14 421.092 235.423 422.306 236.59C423.566 237.71 426.086 239.133 429.866 240.86C433.692 242.587 436.492 244.08 438.266 245.34C440.086 246.553 441.556 248.07 442.676 249.89C443.796 251.663 444.356 253.81 444.356 256.33ZM465.295 252.41V264.24L473.695 265.43L473.625 269H449.405L448.985 266.76C450.431 265.873 452.321 264.94 454.655 263.96V227.14L449.475 226.51L449.545 222.94L472.155 222.38C477.568 222.38 481.931 223.827 485.245 226.72C488.605 229.567 490.285 233.183 490.285 237.57C490.285 241.723 488.698 245.2 485.525 248C482.351 250.8 478.268 252.247 473.275 252.34L465.295 252.41ZM465.295 228.89V246.18C467.161 246.553 468.958 246.74 470.685 246.74C473.531 246.74 475.678 245.853 477.125 244.08C478.571 242.26 479.295 240.043 479.295 237.43C479.295 235.423 478.921 233.51 478.175 231.69C477.428 229.87 476.378 228.587 475.025 227.84L465.295 228.89ZM537.221 265.43L537.151 269H515.101L514.681 266.76C515.988 265.967 518.018 264.987 520.771 263.82L517.831 256.26H501.171L498.091 264.52L504.531 265.43L504.461 269H485.421L485.001 266.76C486.401 265.873 488.338 264.94 490.811 263.96L506.281 225.95L505.441 223.78L514.611 221.26L532.251 264.73L537.221 265.43ZM515.801 250.94L509.501 234.42L503.201 250.94H515.801ZM575.93 263.96L561.58 270.12C555.84 270.307 551.103 269.28 547.37 267.04C543.683 264.8 541 261.883 539.32 258.29C537.64 254.65 536.8 250.73 536.8 246.53C536.8 242.237 537.687 238.177 539.46 234.35C541.233 230.523 543.893 227.443 547.44 225.11C550.987 222.73 555.28 221.54 560.32 221.54C565.733 221.54 570.54 223.01 574.74 225.95C574.833 227.443 574.74 229.45 574.46 231.97C574.18 234.49 573.76 236.683 573.2 238.55H566.76L565.08 229.8C561.86 228.4 558.337 227.7 554.51 227.7C552.223 229.427 550.497 231.853 549.33 234.98C548.21 238.107 547.65 241.397 547.65 244.85C547.65 250.403 549.003 254.813 551.71 258.08C554.417 261.347 558.08 262.91 562.7 262.77L574.25 258.99L575.93 263.96ZM616.462 255.07C616.556 259.643 616.276 264.287 615.622 269H579.012L578.592 266.76C579.946 265.873 581.929 264.917 584.542 263.89V227.14L579.362 226.51L579.432 222.94H615.972C616.206 226.767 615.832 231.2 614.852 236.24H608.972L607.782 229.31L595.182 228.4V243.45L610.232 242.26V249.33L595.182 248.7V263.19L608.272 262.28L610.582 254.65L616.462 255.07ZM657.705 256.33C657.705 260.483 656.049 263.867 652.735 266.48C649.469 269.093 645.339 270.4 640.345 270.4C637.639 270.4 634.699 269.98 631.525 269.14C628.352 268.347 625.739 267.273 623.685 265.92L623.615 263.96C623.615 260.087 623.989 256.4 624.735 252.9H629.775L633.205 262.7C636.145 264.053 639.505 264.73 643.285 264.73C645.852 263.517 647.135 261.557 647.135 258.85C647.135 256.377 645.619 254.3 642.585 252.62L632.085 247.3C626.532 244.127 623.755 240.137 623.755 235.33C623.755 231.27 625.435 227.957 628.795 225.39C632.155 222.823 636.472 221.54 641.745 221.54C646.412 221.54 651.032 222.38 655.605 224.06C655.605 229.007 655.209 233.277 654.415 236.87H648.815L646.785 229.03C644.079 227.63 640.835 226.977 637.055 227.07C634.909 228.423 633.835 230.313 633.835 232.74C633.835 234.14 634.442 235.423 635.655 236.59C636.915 237.71 639.435 239.133 643.215 240.86C647.042 242.587 649.842 244.08 651.615 245.34C653.435 246.553 654.905 248.07 656.025 249.89C657.145 251.663 657.705 253.81 657.705 256.33Z" fill="#0652C5"/>
<line x1="375.751" y1="102.751" x2="305.751" y2="102.751" stroke="#06C579" stroke-width="2"/>
<circle cx="298.749" cy="102.251" r="7.5" transform="rotate(-90 298.749 102.251)" fill="#06C579"/>
<line x1="485.249" y1="101.751" x2="555.249" y2="101.751" stroke="#06C579" stroke-width="2"/>
<circle cx="562.251" cy="102.251" r="7.5" transform="rotate(90 562.251 102.251)" fill="#06C579"/>
<line x1="485.249" y1="153.751" x2="555.249" y2="153.751" stroke="#06C579" stroke-width="2"/>
<circle cx="562.251" cy="154.251" r="7.5" transform="rotate(90 562.251 154.251)" fill="#06C579"/>
<line x1="375.751" y1="153.751" x2="305.751" y2="153.751" stroke="#06C579" stroke-width="2"/>
<circle cx="298.749" cy="153.251" r="7.5" transform="rotate(-90 298.749 153.251)" fill="#06C579"/>
</svg>
